<?xml version="1.0" encoding="utf-8"?>
<!-- Generator: Adobe Illustrator 24.0.1, SVG Export Plug-In . SVG Version: 6.00 Build 0)  -->
<svg version="1.1" id="Layer_1" xmlns="http://www.w3.org/2000/svg" xmlns:xlink="http://www.w3.org/1999/xlink" x="0px" y="0px"
	 viewBox="0 0 500 500" style="enable-background:new 0 0 500 500;" xml:space="preserve">
<g>
	<path d="M250.44,10.12c32.4,0,63.83,6.34,93.42,18.86c28.58,12.09,54.25,29.39,76.29,51.44c22.04,22.04,39.35,47.71,51.44,76.29
		c12.51,29.58,18.86,61.01,18.86,93.42s-6.34,63.83-18.86,93.42c-12.09,28.58-29.39,54.25-51.44,76.29
		c-22.04,22.04-47.71,39.35-76.29,51.44c-29.58,12.51-61.01,18.86-93.42,18.86s-63.83-6.34-93.42-18.86
		c-28.58-12.09-54.25-29.39-76.29-51.44c-22.04-22.04-39.35-47.71-51.44-76.29c-12.51-29.58-18.86-61.01-18.86-93.42
		s6.34-63.83,18.86-93.42c12.09-28.58,29.39-54.25,51.44-76.29c22.04-22.04,47.71-39.35,76.29-51.44
		C186.61,16.46,218.04,10.12,250.44,10.12 M250.44,0.12c-138.07,0-250,111.93-250,250s111.93,250,250,250s250-111.93,250-250
		S388.51,0.12,250.44,0.12L250.44,0.12z"/>
</g>
<path d="M377.79,329.97c0-1.96-0.05,2.05-0.15,0.12c0.09-0.82,0.15-7.63,0.15-8.48V150.99c0-12.07-9.88-21.95-21.95-21.95h0
	c-12.07,0-21.95,9.88-21.95,21.95v86.67c-0.09,2.99-2.54,5.38-5.55,5.38c-3.07,0-5.56-2.49-5.56-5.56l-0.01-135.09
	c0-12.07-9.88-21.95-21.95-21.95s-21.95,9.88-21.95,21.95v124.52c0,3.07-2.51,5.56-5.61,5.56c-2.71,0-4.97-1.9-5.5-4.42V83.53
	c0-12.07-9.88-21.95-21.95-21.95h0c-12.07,0-21.95,9.88-21.95,21.95v139.63c0,3.07-2.49,5.56-5.56,5.56s-5.56-2.49-5.56-5.56V113.21
	c0-12.07-9.88-21.95-21.95-21.95h0c-12.07,0-21.95,9.88-21.95,21.95v159.92c0.02,3.24-0.78,4.33-1.66,4.47
	c-0.88,0.14-1.84-0.25-2.98-3.5v0l-17.26-47.36c-4.13-11.34-16.79-17.24-28.14-13.1c-11.34,4.13-17.24,16.79-13.1,28.14
	l44.01,109.27c16.13,48.89,61.53,85.61,114.39,85.61C326.91,436.65,377.79,392.74,377.79,329.97z"/>
</svg>
