<?xml version="1.0" encoding="utf-8"?>
<!-- Generator: Adobe Illustrator 24.0.1, SVG Export Plug-In . SVG Version: 6.00 Build 0)  -->
<svg version="1.1" id="Layer_1" xmlns="http://www.w3.org/2000/svg" xmlns:xlink="http://www.w3.org/1999/xlink" x="0px" y="0px"
	 viewBox="0 0 500 500" style="enable-background:new 0 0 500 500;" xml:space="preserve">
<g>
	<path d="M250.44,10.12c32.4,0,63.83,6.34,93.42,18.86c28.58,12.09,54.25,29.39,76.29,51.44c22.04,22.04,39.35,47.71,51.44,76.29
		c12.51,29.58,18.86,61.01,18.86,93.42s-6.34,63.83-18.86,93.42c-12.09,28.58-29.39,54.25-51.44,76.29
		c-22.04,22.04-47.71,39.35-76.29,51.44c-29.58,12.51-61.01,18.86-93.42,18.86s-63.83-6.34-93.42-18.86
		c-28.58-12.09-54.25-29.39-76.29-51.44c-22.04-22.04-39.35-47.71-51.44-76.29c-12.51-29.58-18.86-61.01-18.86-93.42
		s6.34-63.83,18.86-93.42c12.09-28.58,29.39-54.25,51.44-76.29c22.04-22.04,47.71-39.35,76.29-51.44
		C186.61,16.46,218.04,10.12,250.44,10.12 M250.44,0.12c-138.07,0-250,111.93-250,250s111.93,250,250,250s250-111.93,250-250
		S388.51,0.12,250.44,0.12L250.44,0.12z"/>
</g>
<g>
	<path d="M419.24,293.29c0-0.18-0.01-0.37-0.03-0.55c-10.57,12.26-57.57,21.51-113.97,21.51c-56.4,0-103.4-9.24-113.97-21.51
		c-0.02,0.18-0.03,0.37-0.03,0.55v9c0,14.76,51.04,26.73,114,26.73c62.96,0,114-11.97,114-26.73V293.29z"/>
	<path d="M419.24,270.79c0-0.18-0.01-0.37-0.03-0.55c-10.57,12.26-57.57,21.51-113.97,21.51c-56.4,0-103.4-9.24-113.97-21.51
		c-0.02,0.18-0.03,0.37-0.03,0.55v9c0,14.76,51.04,26.73,114,26.73c62.96,0,114-11.97,114-26.73V270.79z"/>
	<path d="M419.24,248.29c0-0.18-0.01-0.37-0.03-0.55c-10.57,12.26-57.57,21.51-113.97,21.51c-56.4,0-103.4-9.24-113.97-21.51
		c-0.02,0.18-0.03,0.37-0.03,0.55v9c0,14.76,51.04,26.73,114,26.73c62.96,0,114-11.97,114-26.73V248.29z"/>
	<polygon points="290.21,97.06 279.47,113.24 276.06,118.63 272.64,113.25 261.97,97.11 249.49,97.14 269.9,126.92 248.41,158.36 
		260.37,158.34 272.69,140.05 276.09,134.79 279.39,140.04 291.77,158.28 304.12,158.26 282.25,126.64 302.3,97.04 	"/>
	<path d="M419.24,315.79c0-0.18-0.01-0.37-0.03-0.55c-10.57,12.26-57.57,21.51-113.97,21.51c-56.4,0-103.4-9.24-113.97-21.51
		c-0.02,0.18-0.03,0.37-0.03,0.55v9c0,14.76,51.04,26.73,114,26.73c62.96,0,114-11.97,114-26.73V315.79z"/>
	<path d="M305.25,359.25c-56.4,0-103.4-9.24-113.97-21.51c-0.02,0.18-0.03,0.37-0.03,0.55v9c0,14.76,51.04,26.73,114,26.73
		c62.96,0,114-11.97,114-26.73v-9c0-0.18-0.01-0.37-0.03-0.55C408.65,350,361.64,359.25,305.25,359.25z"/>
	<path d="M63.7,269.69v6.18c0,14.76,51.04,26.73,114,26.73c3.19,0,6.34-0.03,9.46-0.09v-59.46c-3.12-0.06-6.28-0.09-9.46-0.09
		C114.74,242.95,63.7,254.92,63.7,269.69z"/>
	<path d="M305.25,201.88c-62.96,0-114,11.97-114,26.73v6.18c0,14.76,51.04,26.73,114,26.73c62.96,0,114-11.97,114-26.73v-6.18
		C419.24,213.85,368.21,201.88,305.25,201.88z"/>
	<path d="M325.36,133.92l-11.81,9.35l0.03,14.98l51.63-0.09l-0.02-11.04l-42.3-0.06l12.2-8.56c16.27-11.98,29.91-23.31,29.88-41.96
		c-0.03-16.29-10.43-26.52-28.29-26.49c-8.41,0.02-15.63,2.26-22.58,6.87l0.02,11.69c6.69-5.66,13.65-8.17,22.45-8.19
		c10.25-0.02,17.48,6.41,17.5,17.31C354.09,111.53,342.68,122.32,325.36,133.92z"/>
	<path d="M419.24,369.8v-9c0-0.18-0.01-0.37-0.03-0.55c-10.57,12.26-57.57,21.51-113.97,21.51c-56.4,0-103.4-9.24-113.97-21.51
		c-0.02,0.18-0.03,0.37-0.03,0.55v9c0,14.76,51.04,26.73,114,26.73C368.21,396.53,419.24,384.56,419.24,369.8z"/>
	<path d="M187.16,310.23c-3.12,0.06-6.28,0.09-9.46,0.09c-56.4,0-103.4-9.24-113.97-21.51c-0.02,0.18-0.03,0.37-0.03,0.55v9
		c0,14.76,51.04,26.73,114,26.73c3.19,0,6.34-0.03,9.46-0.09V310.23z"/>
	<path d="M177.7,370.1c3.19,0,6.34-0.03,9.46-0.09v-14.78c-3.12,0.06-6.28,0.09-9.46,0.09c-56.4,0-103.4-9.24-113.97-21.51
		c-0.02,0.18-0.03,0.37-0.03,0.55v9C63.7,358.13,114.74,370.1,177.7,370.1z"/>
	<path d="M63.73,311.31c-0.02,0.18-0.03,0.37-0.03,0.55v9c0,14.76,51.04,26.73,114,26.73c3.19,0,6.34-0.03,9.46-0.09v-14.78
		c-3.12,0.06-6.28,0.09-9.46,0.09C121.3,332.82,74.3,323.57,63.73,311.31z"/>
</g>
</svg>
