<?xml version="1.0" encoding="utf-8"?>
<!-- Generator: Adobe Illustrator 24.0.1, SVG Export Plug-In . SVG Version: 6.00 Build 0)  -->
<svg version="1.1" id="Layer_1" xmlns="http://www.w3.org/2000/svg" xmlns:xlink="http://www.w3.org/1999/xlink" x="0px" y="0px"
	 viewBox="0 0 500 500" style="enable-background:new 0 0 500 500;" xml:space="preserve">
<g>
	<path d="M250.44,10.12c32.4,0,63.83,6.34,93.42,18.86c28.58,12.09,54.25,29.39,76.29,51.44c22.04,22.04,39.35,47.71,51.44,76.29
		c12.51,29.58,18.86,61.01,18.86,93.42s-6.34,63.83-18.86,93.42c-12.09,28.58-29.39,54.25-51.44,76.29
		c-22.04,22.04-47.71,39.35-76.29,51.44c-29.58,12.51-61.01,18.86-93.42,18.86s-63.83-6.34-93.42-18.86
		c-28.58-12.09-54.25-29.39-76.29-51.44c-22.04-22.04-39.35-47.71-51.44-76.29c-12.51-29.58-18.86-61.01-18.86-93.42
		s6.34-63.83,18.86-93.42c12.09-28.58,29.39-54.25,51.44-76.29c22.04-22.04,47.71-39.35,76.29-51.44
		C186.61,16.46,218.04,10.12,250.44,10.12 M250.44,0.12c-138.07,0-250,111.93-250,250s111.93,250,250,250s250-111.93,250-250
		S388.51,0.12,250.44,0.12L250.44,0.12z"/>
</g>
<g>
	<path d="M429.43,162.72l-137.3-52.28c-8.87-3.38-18.89,1.12-22.27,9.99l-82.61,216.95c-3.38,8.87,1.12,18.89,9.99,22.27
		l137.3,52.28c8.87,3.38,18.89-1.12,22.27-9.99l82.61-216.95C442.79,176.12,438.3,166.09,429.43,162.72z"/>
	<path d="M179.53,335.37l71.22-187.04l-10.63-27.9c-3.38-8.87-13.4-13.36-22.27-9.99l-137.3,52.28c-8.87,3.38-13.36,13.4-9.99,22.27
		l82.61,216.95c3.38,8.87,13.4,13.36,22.27,9.99l68.29-26l-50.1-19.08C181.1,362.07,174.75,347.91,179.53,335.37z"/>
</g>
</svg>
